<svg xmlns="http://www.w3.org/2000/svg" viewBox="0 0 24 24">
  <path d="M11.5725 0c-.1763 0-.3098.0013-.3584.0067-.0516.0053-.2159.021-.3636.0328-3.4088.3073-6.6017 2.1463-8.624 4.9728C1.1004 6.584.3802 8.3666.1082 10.255c-.0962.659-.108.8537-.108 1.7474.0001.8895.0098 1.0821.1003 1.7475.6809 4.6328 3.9108 8.4955 8.3825 10.0176.7588.2551 1.5583.4301 2.4625.5329.3363.0386 1.7898.0386 2.1259 0 1.4953-.1715 2.7444-.5606 3.9936-1.2383.1906-.0974.2275-.1233.2013-.1418-.0185-.0128-1.2-1.5958-2.6309-3.5084l-2.5959-3.4872-3.2516-4.812c-.1792-.2655-.3666-.5303-.4162-.5996-.0497-.0693-.0517-.0715-.0557.0246-.0039.0952-.0052 1.8888-.0065 4.0702-.0018 3.9003-.0026 4.0842-.0455 4.1696a.4924.4924 0 0 1-.2337.2412c-.0853.0428-.1604.0512-.5981.0512H7.265l-.1196-.0756a.4914.4914 0 0 1-.177-.1942l-.0562-.1173.0056-6.3625.0082-6.3625.0844-.1065c.0464-.0587.144-.1353.2138-.1703.1202-.0588.1676-.0648.5986-.0648.5065 0 .5916.0215.7602.1982.047.0459 1.8104 2.7054 3.9198 5.9096 2.1081 3.2042 4.6926 7.1282 5.7438 8.7194l1.9102 2.8987.0977-.0637c.8666-.5637 1.7805-1.3706 2.4477-2.1881 1.5051-1.8439 2.4778-4.1063 2.7986-6.5186.0962-.659.108-.8537.108-1.7474 0-.8937-.0118-1.0884-.108-1.7474-.6809-4.6328-3.9108-8.4955-8.3825-10.0176-.7455-.2508-1.5383-.4247-2.4265-.5294-.2272-.026-1.9419-.0554-2.1487-.0347zm5.4187 7.2455c.1366.0683.2484.201.2879.3359.0218.0754.0275 1.8356.0218 5.7992l-.009 5.6891-1.011-1.5447-.0026-.0026-1.0108-1.5447V12.152c0-3.3636.0026-4.3648.0164-4.4398.0355-.1903.157-.3419.3276-.4017.0855-.0298.1183-.0334.5655-.0334.4339 0 .4823.0041.5942.0683z"/>
</svg>
